# xmcd
#
# Track frame offsets: 
#        182
#        14882
#        28707
#        42320
#        53370
#        65735
#        79100
#        92390
#        105597
#        117212
#        124505
#        134737
#        147072
#        162225
#        173667
#        186637
#        199440
#        214455
#
# Disc length: 3076 seconds
#
# Revision: 3
# Processed by: cddbd v1.5.1PL0 Copyright (c) Steve Scherf et al.
# Submitted via: ExactAudioCopy v0.90b4
#
DISCID=090c0212
DTITLE=Elmore James - Rollin' And Tumblin' - Disc 2
DYEAR=1999
DGENRE=Blues
TTITLE0=Stranger Blues
TTITLE1=Bleeding Heart
TTITLE2=Standing At The Crossroads
TTITLE3=One Way Out
TTITLE4=Got To Move
TTITLE5=My Baby'S Gone
TTITLE6=Find My Kinda Woman
TTITLE7=Look On Yonder Wall
TTITLE8=Shake Your Moneymaker
TTITLE9=Mean Mistreatin' Mama
TTITLE10=Sunnyland Train
TTITLE11=I Have A Right To Love My Baby
TTITLE12=Everyday I Have The Blues
TTITLE13=So Unkind
TTITLE14=Make My Dreams Come True
TTITLE15=Talk To Me Baby
TTITLE16=It Hurts Me Too
TTITLE17=I Gotta Go Now
EXTD=\nYEAR: 2002  ID3G:   0
EXTT0=
EXTT1=
EXTT2=
EXTT3=
EXTT4=
EXTT5=
EXTT6=
EXTT7=
EXTT8=
EXTT9=
EXTT10=
EXTT11=
EXTT12=
EXTT13=
EXTT14=
EXTT15=
EXTT16=
EXTT17=
PLAYORDER=
